<svg xmlns="http://www.w3.org/2000/svg" viewBox="0 0 70 24" width="70" height="24">
	<style>
		tspan { white-space:pre }
		.shp0 { fill: #f2f5f4 } 
	</style>
	<path id="1" class="shp0" d="M35.5 2C41.3 2 46 6.7 46 12.5C46 18.3 41.3 23 35.5 23C29.7 23 25 18.3 25 12.5C25 6.7 29.7 2 35.5 2ZM62.5 6C66.09 6 69 8.91 69 12.5C69 16.09 66.09 19 62.5 19C58.91 19 56 16.09 56 12.5C56 8.91 58.91 6 62.5 6ZM8.5 6C12.09 6 15 8.91 15 12.5C15 16.09 12.09 19 8.5 19C4.91 19 2 16.09 2 12.5C2 8.91 4.91 6 8.5 6Z" />
</svg>